<mxfile host="app.diagrams.net" modified="2024-07-12T11:53:36.639Z" agent="Mozilla/5.0 (Windows NT 10.0; Win64; x64) AppleWebKit/537.36 (KHTML, like Gecko) Chrome/126.0.0.0 Safari/537.36" version="24.6.5" etag="imVhZ8OCittWaat959T0" type="github">
  <diagram name="StrÃ¡nka-1" id="In2NuHSv8v8cN1mP8iGh">
    <mxGraphModel>
      <root>
        <mxCell id="0" />
        <mxCell id="1" parent="0" />
      </root>
    </mxGraphModel>
  </diagram>
</mxfile>
